<?xml version="1.0" encoding="utf-8"?>
<!-- Generator: Adobe Illustrator 24.2.3, SVG Export Plug-In . SVG Version: 6.00 Build 0)  -->
<svg version="1.1" id="Layer_1" xmlns="http://www.w3.org/2000/svg" xmlns:xlink="http://www.w3.org/1999/xlink" x="0px" y="0px"
	 viewBox="0 0 108.1 75.5" style="enable-background:new 0 0 108.1 75.5;" xml:space="preserve">
<style type="text/css">
	.st0{fill:#6D6E70;}
	.st1{fill:#0073A6;}
	.st2{fill-rule:evenodd;clip-rule:evenodd;fill:#0073A6;}
</style>
<g>
	<path class="st0" d="M81-35.6h0.2l5.4-27.1h7.6L85.8-26h-9.5l-8.5-36.6h7.9L81-35.6z"/>
	<path class="st1" d="M97.4-62.7h7.4v36.6h-7.5L97.4-62.7L97.4-62.7z"/>
	<path class="st0" d="M123.2-62.7c1.8,0,3.4,0.3,4.8,1c1.3,0.6,2.3,1.4,3.1,2.5c0.8,1,1.3,2.2,1.7,3.5c0.3,1.3,0.5,2.7,0.5,4
		c0,1.8-0.3,3.5-0.8,4.9c-0.6,1.4-1.3,2.5-2.3,3.4s-2.3,1.6-3.7,2c-1.4,0.4-3,0.7-4.8,0.7h-3.9V-26h-7.4v-36.7H123.2z M121-46.1
		c1.4,0,2.7-0.4,3.6-1.3c0.9-0.9,1.3-2.3,1.3-4.1s-0.3-3.3-1.2-4.2c-0.8-1-2.1-1.4-3.9-1.4h-3.1v11.2L121-46.1L121-46.1z"/>
</g>
<g>
	<g>
		<path class="st1" d="M36.9,31.5V20.1L34,16.6c-0.2-0.3-0.7-0.3-0.9-0.1c-0.3,0.2-0.3,0.7-0.1,0.9l1.4,1.7l-0.3,1.1l1.5,1.6v9.8
			l0,0.1l0,0.1c0,0.2,0,0.5-0.1,0.7c-0.1,0.1-0.2,0.1-0.3,0.1c-0.2,0-0.2-0.1-0.3-0.1c-0.1-0.1-0.1-0.5-0.1-0.7l0-0.1v-5.7
			c0-0.9-0.3-1.7-0.8-2.2c-0.5-0.5-1.1-0.6-1.5-0.7v-4.5c0-0.9-0.7-1.6-1.6-1.6h-8c-0.9,0-1.6,0.7-1.6,1.6v16.2h-1.7v1.7h14.6v-1.7
			h-1.6V24.4c0.2,0,0.4,0.1,0.5,0.3c0.3,0.3,0.4,0.7,0.4,1.2v5.6c0,0.3-0.1,1.1,0.4,1.7c0.2,0.3,0.6,0.6,1.3,0.6
			c0.7,0,1.1-0.3,1.4-0.6C37,32.6,36.9,31.8,36.9,31.5 M30.9,22.2c0,0.8-0.6,1.4-1.4,1.4h-5.1c-0.8,0-1.4-0.6-1.4-1.4v-2.3
			c0-0.8,0.6-1.4,1.4-1.4h5.1c0.8,0,1.4,0.6,1.4,1.4V22.2z"/>
		<g>
			<path class="st1" d="M54.6,16.3c-5.6,0-10.1,4.5-10.1,10.1c0,5.6,4.5,10.1,10.1,10.1c5.6,0,10.1-4.5,10.1-10.1
				C64.7,20.8,60.2,16.3,54.6,16.3z M54.8,32.1c-3.2,0-5.8-2.6-5.8-5.8c0-3.2,2.6-5.8,5.8-5.8c3.2,0,5.8,2.6,5.8,5.8
				C60.5,29.5,58,32.1,54.8,32.1z"/>
			<path class="st1" d="M53.2,25.8c0.2-0.5-1.1-2.1-1.8-2.4c-0.7-0.2-1.1,1.1-1.2,1.4c-0.1,0.3-0.5,1.6,0.1,1.8
				C51.1,26.9,53.1,26.4,53.2,25.8z"/>
			<path class="st1" d="M51,28.6c-0.4,0.6,0.7,1.4,1,1.6c0.2,0.2,1.4,1,1.8,0.4c0.4-0.6,0.5-2.7,0-3C53.4,27.4,51.4,28.1,51,28.6z"
				/>
			<path class="st1" d="M54.8,24.7c0.5,0,1.7-1.7,1.7-2.4c0-0.7-1.4-0.7-1.7-0.7s-1.7,0-1.7,0.7C53.1,23,54.2,24.7,54.8,24.7z"/>
			<path class="st1" d="M55.8,27.7c-0.4,0.3-0.3,2.4,0,3c0.4,0.6,1.6-0.3,1.8-0.4c0.2-0.2,1.4-1,1-1.6
				C58.1,28.1,56.2,27.4,55.8,27.7z"/>
			<path class="st1" d="M58.1,23.5c-0.7,0.2-2,1.9-1.8,2.4c0.2,0.5,2.2,1.1,2.8,0.9c0.7-0.2,0.2-1.6,0.1-1.8
				C59.3,24.6,58.8,23.2,58.1,23.5z"/>
			<path class="st1" d="M54.8,25.3c-0.5,0-0.9,0.4-0.9,0.9s0.4,0.9,0.9,0.9c0.5,0,0.9-0.4,0.9-0.9S55.3,25.3,54.8,25.3z"/>
		</g>
		<g>
			<path class="st2" d="M77.2,16.4V23c0,0.4-0.3,0.6-0.6,0.6c-0.3,0-0.6-0.3-0.6-0.6v-6.8c-0.4,0-0.8,0-1.2,0V23
				c0,0.4-0.3,0.6-0.6,0.6c-0.3,0-0.6-0.3-0.6-0.6v-6.6c-0.7,0.2-1.2,0.4-1.2,0.8l-0.6,7c0,1.8,1.1,3.4,2.7,3.8v8.3h2.1v-8.4
				c1.4-0.5,2.4-2,2.4-3.8l-0.6-7C78.4,16.8,77.9,16.5,77.2,16.4z"/>
			<path class="st2" d="M84.8,16.5c-2.1,0-3.8,1.8-3.8,4V23c0,1.8,1.2,4.1,2.8,4.8v8.5h2.1v-8.5c1.6-0.7,2.8-3,2.8-4.8v-2.5
				C88.6,18.3,86.9,16.5,84.8,16.5z"/>
		</g>
		<g>
			<path class="st1" d="M47.5,43.7c-1.1-3.2-3.9-5-7.1-4.4c-3.3,0.6-5.2,3.8-4,7.5c0.1,0.4,0.5,0.5,0.9,0.4c0.4-0.1,0.5-0.4,0.4-0.8
				c-0.1-0.5-0.1-1.1-0.2-1.7c-0.2-2.4,1.9-4.5,4.3-4.1c2.7,0.4,4.5,2.5,4.5,5.3c0,0.7-0.1,1.4-0.4,2.1c-0.5,1.3-1.3,2.4-2.2,3.5
				c-1,1.2-1.8,2.4-2.2,3.9c-0.2,0.6-0.5,1.2-0.9,1.6c-0.6,0.6-1.4,0.9-2.2,0.6c-0.8-0.3-1.3-1-1.4-1.9c0-0.4,0.1-0.7,0.2-1.1
				c0.1-0.4,0-0.7-0.4-0.9c-0.3-0.2-0.7,0-0.9,0.4c-0.6,1.4-0.5,2.7,0.5,3.8c0.9,1.1,2.1,1.5,3.4,1.2c1.7-0.4,2.5-1.6,3-3.1
				c0.4-1.3,1-2.4,1.9-3.4c0.6-0.7,1.2-1.3,1.6-2C47.7,48.5,48.4,46.2,47.5,43.7z"/>
			<path class="st1" d="M39.7,48.4c-0.2,0.1-0.3,0.3-0.5,0.5c-0.7,0.8-0.6,1.9,0.1,2.5c0.7,0.6,1.6,0.4,2.3-0.4
				c0.9-1.1,0.9-2.5-0.1-3.8c-0.4-0.5-0.7-0.9-0.9-1.5c-0.3-0.7-0.1-1.2,0.4-1.5c0.6-0.4,1.3-0.2,1.7,0.4c0.2,0.3,0.4,0.6,0.5,0.9
				c0.2,0.3,0.5,0.3,0.8,0.2c0.3-0.1,0.4-0.3,0.3-0.6c-0.2-1.2-1.6-2.4-2.8-2.4c-1.2,0-2.3,1.1-2.4,2.4c0,0.7,0.2,1.4,0.6,2
				C40.3,47.7,40.3,47.9,39.7,48.4z"/>
			<path class="st1" d="M29.8,51.4c-0.5-2-0.2-3.8,1.1-5.4c0.4-0.5,0.4-0.8,0-1.1c-0.3-0.3-0.7-0.2-1.1,0.2
				c-2.8,3.3-1.7,7.8,0.7,9.9c0.2,0.1,0.3,0.3,0.6,0.3c0.2,0,0.4-0.1,0.6-0.3c0.3-0.4,0.1-0.7-0.2-1C30.7,53.3,30.1,52.4,29.8,51.4z
				"/>
			<path class="st1" d="M32.2,48.9c0.1-0.5,0.4-1,0.7-1.4c0.2-0.2,0.2-0.4,0.1-0.7c-0.1-0.2-0.3-0.4-0.5-0.4c-0.4,0-0.6,0.1-0.8,0.3
				c-0.6,0.8-1,1.6-1,2.6c-0.1,1.5,0.4,2.7,1.5,3.7c0.5,0.4,1.1,0.3,1.2-0.3c0.1-0.3-0.1-0.5-0.3-0.7C32.3,51.2,31.9,50.2,32.2,48.9
				z"/>
			<path class="st1" d="M34.9,49.1c0.3-0.4-0.1-0.9-0.6-1c-0.1,0-0.2,0-0.3,0.1c-0.6,0.4-0.8,1.1-0.7,1.8c0.1,0.6,0.3,1.2,0.9,1.5
				c0.3,0.2,0.6,0,0.8-0.2c0.2-0.2,0.3-0.5,0-0.8C34.6,50,34.6,49.6,34.9,49.1z"/>
		</g>
		<g>
			<path class="st1" d="M72.6,43.8c0.4,0.1,0.4,0.1,0.6,0c0.3-0.1,0.7-0.5,1.2-0.5c0.5-0.1,1.1,0,1.7,0.4c0.6,0.4,3.5,3,3.5,3
				s2.5,0.2,3.4,0.3l-5.1-3.7c0,0-1.9-1.3-3.2-1.3c-1.3-0.1-2.4,0.8-2.5,1C72.3,43.3,72.2,43.7,72.6,43.8z"/>
			<path class="st1" d="M62.7,43.7c0.6-0.4,1.1-0.5,1.7-0.4c0.5,0.1,0.9,0.4,1.2,0.5c0.3,0.1,0.2,0.1,0.6,0c0.4-0.1,0.3-0.5,0.3-0.7
				c0-0.2-1.2-1-2.5-1c-1.3,0.1-3.2,1.3-3.2,1.3l-5.1,3.7c0.9-0.2,3.4-0.3,3.4-0.3S62.1,44.1,62.7,43.7z"/>
			<path class="st1" d="M83.5,48.6c-1.3-0.4-4.9-0.6-7.4-0.5c-2.5,0-4.3,0.7-5.2,1c-0.9,0.3-2.2,0.5-3.7-0.1
				c-1.4-0.6-4.6-0.9-6.1-0.9c-1.6,0-3.8,0.3-4.8,0.5c-1,0.1-1,0.3-1,0.3l0,1.7c0.5,0.3,0.6,0.5,0.8,1c0.2,0.5,0.5,2.7,1,3.9
				c0.5,1.3,1.4,2.1,3.6,2.2c2.1,0.1,4-0.1,5.3-1.4c1.3-1.3,1.4-2.1,1.7-2.7c0.3-0.7,0.5-2.1,1-2.4s1.5-0.3,1.8,0.5
				c0.3,0.8,0.7,1.9,1.1,2.7c0.4,0.8,1.2,2.3,3.1,2.9c1.8,0.6,4.3,0.5,5.6,0c1.3-0.5,1.7-2.1,1.8-2.4c0.1-0.3,0.7-3,0.9-3.6
				c0.2-0.5,0.7-0.7,0.7-0.7L83.5,48.6z M65.3,54.2c-0.8,1.7-2.7,1.9-3.5,1.9c-0.9,0.1-1.6-0.1-2.3-0.3c-0.7-0.2-1.3-1.4-1.4-3.3
				c-0.2-1.9,0.3-2.4,0.6-2.7c0.3-0.2,1.5-0.5,3.3-0.6c0,0,3.8,0,4.1,1.2C66.4,51.8,66.1,52.5,65.3,54.2z M80.8,52.5
				c-0.2,1.9-0.8,3.1-1.4,3.3c-0.7,0.2-1.5,0.4-2.3,0.3c-0.9-0.1-2.7-0.2-3.5-1.9s-1.1-2.4-0.7-3.7c0.3-1.3,4.1-1.2,4.1-1.2
				c1.7,0,3,0.3,3.3,0.6C80.5,50.1,81,50.6,80.8,52.5z"/>
		</g>
	</g>
</g>
</svg>
