<?xml version="1.0" encoding="utf-8"?>
<!-- Generator: Adobe Illustrator 21.1.0, SVG Export Plug-In . SVG Version: 6.00 Build 0)  -->
<svg version="1.1" id="Layer_1" xmlns="http://www.w3.org/2000/svg" xmlns:xlink="http://www.w3.org/1999/xlink" x="0px" y="0px"
	 viewBox="0 0 108.1 75.5" style="enable-background:new 0 0 108.1 75.5;" xml:space="preserve">
<style type="text/css">
	.st0{fill:#0073A6;}
	.st1{fill:#6D6E70;}
</style>
<g>
	<path class="st0" d="M77.7,39.3c-0.6-0.5-1.6-1.1-3-1.5c-3-5.9-11-10.2-20.3-10.2c-3.2,0-6.2,0.5-9.1,1.4c-1-1-3.7-3-7.1-3
		c-1,0-2.2,0.2-3.2,0.6c-0.2,0.1-0.4,0.3-0.5,0.6c-0.1,0.3-0.1,0.6,0.1,0.8l3.2,5.2c-2.3,2-3.9,4.3-4.6,6.9l-3.3,1.2
		c-1.7,0.6-2.6,2.4-1.9,4.2l1.5,4.3c0.5,1.3,1.8,2.6,3.4,2.6c0.5,0,1-0.1,1.4-0.3l2-0.9c1.4,1.9,3.8,3.6,5.5,4.6l-0.7,2.7
		c-0.3,1.3,0.4,2.6,1.8,3l4.7,1.3c0.2,0.1,0.4,0.1,0.6,0.1c1.1,0,2-0.7,2.3-1.8l0.6-2.6c3.4,0.3,6.8,0.1,9.9-0.6l0.8,2.9
		c0.3,1,1.3,1.8,2.3,1.8l0,0c0.2,0,0.4-0.1,0.6-0.1l4.7-1.3c0.6-0.2,1.2-0.6,1.4-1.1c0.3-0.6,0.4-1.2,0.2-1.8l-1.2-4.5
		c3.6-2.8,5.6-6.5,5.6-10.3c0-0.3,0-0.6-0.1-1c-0.1-0.6-0.2-1.4-0.3-2c0.4,0.2,0.8,0.4,1,0.6c1,0.7,1.6,1.7,1.8,2.6
		c0.1,0.2,0.1,0.4,0.1,0.6c0.1,0.5,0.4,0.8,0.9,0.8h0.1c0.5-0.1,0.9-0.4,0.8-1C80.1,42.1,79.2,40.5,77.7,39.3z M40.6,41.5
		c-1.2,0-2.2-1-2.2-2.2s1-2.2,2.2-2.2s2.2,1,2.2,2.2C42.7,40.6,41.8,41.5,40.6,41.5z M65.9,34.8c-0.2,0.2-0.5,0.4-0.8,0.4
		c-0.2,0-0.3-0.1-0.4-0.1c-5.8-3.4-15-1.7-16.8-1.3c-0.5,0.1-1-0.2-1-0.6c-0.1-0.5,0.2-1,0.6-1c2.7-0.6,11.9-2.2,18.1,1.4
		C66.1,33.8,66.1,34.3,65.9,34.8z"/>
	<circle class="st1" cx="60.9" cy="19.9" r="6"/>
</g>
</svg>
