<?xml version="1.0" encoding="utf-8"?>
<!-- Generator: Adobe Illustrator 23.0.4, SVG Export Plug-In . SVG Version: 6.00 Build 0)  -->
<svg version="1.1" id="Capa_1" xmlns="http://www.w3.org/2000/svg" xmlns:xlink="http://www.w3.org/1999/xlink" x="0px" y="0px"
	 viewBox="0 0 266.9 266.9" style="enable-background:new 0 0 266.9 266.9;" xml:space="preserve">
<g>
	<path d="M261.7,80.3c-0.6-13.7-2.8-23.1-6-31.3c-3.2-8.6-8.3-16.4-14.9-22.8c-6.4-6.6-14.2-11.6-22.8-14.9
		c-8.2-3.2-17.6-5.4-31.3-6c-13.8-0.6-18.2-0.8-53.2-0.8c-35,0-39.4,0.1-53.2,0.8c-13.7,0.6-23.1,2.8-31.3,6
		c-8.6,3.2-16.4,8.3-22.8,14.9c-6.6,6.4-11.6,14.2-14.9,22.8c-3.2,8.2-5.4,17.6-6,31.3C4.6,94,4.4,98.4,4.4,133.4
		c0,35,0.1,39.4,0.8,53.2c0.6,13.7,2.8,23.1,6,31.3c3.2,8.6,8.3,16.4,14.9,22.8c6.4,6.6,14.2,11.6,22.8,14.9
		c8.2,3.2,17.6,5.4,31.3,6c13.8,0.6,18.2,0.8,53.2,0.8s39.4-0.1,53.2-0.8c13.7-0.6,23.1-2.8,31.3-6c17.3-6.7,31-20.4,37.7-37.7
		c3.2-8.2,5.4-17.6,6-31.3c0.6-13.8,0.8-18.2,0.8-53.2S262.3,94,261.7,80.3z M238.4,185.6c-0.6,12.6-2.7,19.4-4.4,24
		c-4.3,11.3-13.2,20.1-24.5,24.5c-4.5,1.8-11.4,3.9-24,4.4c-13.6,0.6-17.7,0.8-52.1,0.8s-38.5-0.1-52.1-0.8
		c-12.6-0.6-19.4-2.7-24-4.4c-5.6-2.1-10.7-5.4-14.8-9.6c-4.3-4.2-7.6-9.2-9.6-14.8c-1.8-4.5-3.9-11.4-4.4-24
		c-0.6-13.6-0.8-17.7-0.8-52.1s0.1-38.5,0.8-52.1c0.6-12.6,2.7-19.4,4.4-24c2.1-5.6,5.4-10.7,9.7-14.8c4.2-4.3,9.2-7.6,14.8-9.6
		c4.5-1.8,11.4-3.9,24-4.4c13.6-0.6,17.7-0.8,52.1-0.8l0,0c34.4,0,38.5,0.1,52.1,0.8c12.6,0.6,19.4,2.7,24,4.4
		c5.6,2.1,10.7,5.4,14.8,9.6c4.3,4.2,7.6,9.2,9.6,14.8c1.8,4.5,3.9,11.4,4.4,24c0.6,13.6,0.8,17.7,0.8,52.1S239.1,172,238.4,185.6z"
		/>
	<polygon points="133.4,4.4 133.4,4.4 133.4,4.4 	"/>
	<path d="M133.4,67.2c-36.6,0-66.2,29.7-66.2,66.2s29.7,66.2,66.2,66.2c36.6,0,66.2-29.7,66.2-66.2S170,67.2,133.4,67.2z
		 M133.4,176.4c-23.7,0-43-19.3-43-43s19.3-43,43-43c23.7,0,43,19.3,43,43C176.4,157.2,157.2,176.4,133.4,176.4z"/>
	<ellipse transform="matrix(0.9732 -0.2298 0.2298 0.9732 -9.426 48.2069)" cx="202.3" cy="64.6" rx="15.5" ry="15.5"/>
</g>
</svg>
